<svg aria-hidden="true" style="position: absolute; width: 0; height: 0; overflow: hidden;" version="1.1" xmlns="http://www.w3.org/2000/svg" xmlns:xlink="http://www.w3.org/1999/xlink">
<defs>
<symbol id="icon-display" viewBox="0 0 32 32">
<path d="M0 2v20h32v-20h-32zM30 20h-28v-16h28v16zM21 24h-10l-1 4-2 2h16l-2-2z"></path>
</symbol>
<symbol id="icon-mobile" viewBox="0 0 32 32">
<path d="M23 0h-14c-1.65 0-3 1.35-3 3v26c0 1.65 1.35 3 3 3h14c1.65 0 3-1.35 3-3v-26c0-1.65-1.35-3-3-3zM12 1.5h8v1h-8v-1zM16 30c-1.105 0-2-0.895-2-2s0.895-2 2-2 2 0.895 2 2-0.895 2-2 2zM24 24h-16v-20h16v20z"></path>
</symbol>
<symbol id="icon-earth" viewBox="0 0 32 32">
<path d="M16 0c-8.837 0-16 7.163-16 16s7.163 16 16 16 16-7.163 16-16-7.163-16-16-16zM16 30c-1.967 0-3.84-0.407-5.538-1.139l7.286-8.197c0.163-0.183 0.253-0.419 0.253-0.664v-3c0-0.552-0.448-1-1-1-3.531 0-7.256-3.671-7.293-3.707-0.188-0.188-0.442-0.293-0.707-0.293h-4c-0.552 0-1 0.448-1 1v6c0 0.379 0.214 0.725 0.553 0.894l3.447 1.724v5.871c-3.627-2.53-6-6.732-6-11.489 0-2.147 0.484-4.181 1.348-6h3.652c0.265 0 0.52-0.105 0.707-0.293l4-4c0.188-0.188 0.293-0.442 0.293-0.707v-2.419c1.268-0.377 2.61-0.581 4-0.581 2.2 0 4.281 0.508 6.134 1.412-0.13 0.109-0.256 0.224-0.376 0.345-1.133 1.133-1.757 2.64-1.757 4.243s0.624 3.109 1.757 4.243c1.139 1.139 2.663 1.758 4.239 1.758 0.099 0 0.198-0.002 0.297-0.007 0.432 1.619 1.211 5.833-0.263 11.635-0.014 0.055-0.022 0.109-0.026 0.163-2.541 2.596-6.084 4.208-10.004 4.208z"></path>
</symbol>
<symbol id="icon-sun" viewBox="0 0 32 32">
<path d="M16 26c1.105 0 2 0.895 2 2v2c0 1.105-0.895 2-2 2s-2-0.895-2-2v-2c0-1.105 0.895-2 2-2zM16 6c-1.105 0-2-0.895-2-2v-2c0-1.105 0.895-2 2-2s2 0.895 2 2v2c0 1.105-0.895 2-2 2zM30 14c1.105 0 2 0.895 2 2s-0.895 2-2 2h-2c-1.105 0-2-0.895-2-2s0.895-2 2-2h2zM6 16c0 1.105-0.895 2-2 2h-2c-1.105 0-2-0.895-2-2s0.895-2 2-2h2c1.105 0 2 0.895 2 2zM25.899 23.071l1.414 1.414c0.781 0.781 0.781 2.047 0 2.828s-2.047 0.781-2.828 0l-1.414-1.414c-0.781-0.781-0.781-2.047 0-2.828s2.047-0.781 2.828 0zM6.101 8.929l-1.414-1.414c-0.781-0.781-0.781-2.047 0-2.828s2.047-0.781 2.828 0l1.414 1.414c0.781 0.781 0.781 2.047 0 2.828s-2.047 0.781-2.828 0zM25.899 8.929c-0.781 0.781-2.047 0.781-2.828 0s-0.781-2.047 0-2.828l1.414-1.414c0.781-0.781 2.047-0.781 2.828 0s0.781 2.047 0 2.828l-1.414 1.414zM6.101 23.071c0.781-0.781 2.047-0.781 2.828 0s0.781 2.047 0 2.828l-1.414 1.414c-0.781 0.781-2.047 0.781-2.828 0s-0.781-2.047 0-2.828l1.414-1.414z"></path>
<path d="M16 8c-4.418 0-8 3.582-8 8s3.582 8 8 8c4.418 0 8-3.582 8-8s-3.582-8-8-8zM16 21c-2.761 0-5-2.239-5-5s2.239-5 5-5 5 2.239 5 5-2.239 5-5 5z"></path>
</symbol>
<symbol id="icon-brightness-contrast" viewBox="0 0 32 32">
<path d="M16 8c-4.418 0-8 3.582-8 8s3.582 8 8 8 8-3.582 8-8-3.582-8-8-8zM16 21v-10c2.757 0 5 2.243 5 5s-2.243 5-5 5zM16 26c1.105 0 2 0.895 2 2v2c0 1.105-0.895 2-2 2s-2-0.895-2-2v-2c0-1.105 0.895-2 2-2zM16 6c-1.105 0-2-0.895-2-2v-2c0-1.105 0.895-2 2-2s2 0.895 2 2v2c0 1.105-0.895 2-2 2zM30 14c1.105 0 2 0.895 2 2s-0.895 2-2 2h-2c-1.105 0-2-0.895-2-2s0.895-2 2-2h2zM6 16c0 1.105-0.895 2-2 2h-2c-1.105 0-2-0.895-2-2s0.895-2 2-2h2c1.105 0 2 0.895 2 2zM25.899 23.071l1.414 1.414c0.781 0.781 0.781 2.047 0 2.828s-2.047 0.781-2.828 0l-1.414-1.414c-0.781-0.781-0.781-2.047 0-2.828s2.047-0.781 2.828 0zM6.101 8.929l-1.414-1.414c-0.781-0.781-0.781-2.047 0-2.828s2.047-0.781 2.828 0l1.414 1.414c0.781 0.781 0.781 2.047 0 2.828s-2.047 0.781-2.828 0zM25.899 8.929c-0.781 0.781-2.047 0.781-2.828 0s-0.781-2.047 0-2.828l1.414-1.414c0.781-0.781 2.047-0.781 2.828 0s0.781 2.047 0 2.828l-1.414 1.414zM6.101 23.071c0.781-0.781 2.047-0.781 2.828 0s0.781 2.047 0 2.828l-1.414 1.414c-0.781 0.781-2.047 0.781-2.828 0s-0.781-2.047 0-2.828l1.414-1.414z"></path>
</symbol>
<symbol id="icon-terminal" viewBox="0 0 32 32">
<path d="M0 2v28h32v-28h-32zM30 28h-28v-24h28v24zM28 6h-24v20h24v-20zM14 16h-2v2h-2v2h-2v-2h2v-2h2v-2h-2v-2h-2v-2h2v2h2v2h2v2zM22 20h-6v-2h6v2z"></path>
</symbol>
</defs>
</svg>
